<svg width="24" height="25" viewBox="0 0 24 25" fill="none" xmlns="http://www.w3.org/2000/svg">
<g clip-path="url(#clip0_315_6353)">
<rect width="24" height="25" fill="black"/>
<path d="M15.7664 3.24351L14.8006 2.25195L14.6411 2.46888L14.5506 2.7189L14.3651 3.12523L13.9941 3.93789L13.252 5.56322L11.3936 11.1808H13.252L15.7664 3.24351Z" stroke="white" stroke-width="0.277671"/>
<path d="M6.44552 15.0757L5.28151 14.1387L5.77938 13.5644L6.47862 13.9135L7.60572 13.6376L9.85993 13.0859L13.3509 12.4941L13.4156 14.429L6.44552 15.0757Z" stroke="white" stroke-width="0.163336"/>
<path d="M18.444 11.4969L17.8284 10.4229L15.1755 13.3006L8.20996 22.0951L8.86498 23.1916L18.444 11.4969Z" stroke="white" stroke-width="0.277671"/>
<path d="M5.46484 13.9903L14.792 2.26367L12.2175 10.6529L17.5775 10.3468L8.16581 22.1345L10.7403 13.6228L5.46484 13.9903Z" fill="white" stroke="white" stroke-width="0.272672"/>
</g>
<defs>
<clipPath id="clip0_315_6353">
<rect width="24" height="25" fill="white"/>
</clipPath>
</defs>
</svg>
